<svg width="30" height="30" viewBox="0 0 30 30" fill="none" xmlns="http://www.w3.org/2000/svg">
<g clip-path="url(#clip0_88_675)">
<path d="M25 2.5H23.75V1.25C23.75 0.918479 23.6183 0.600537 23.3839 0.366117C23.1495 0.131696 22.8315 0 22.5 0C22.1685 0 21.8505 0.131696 21.6161 0.366117C21.3817 0.600537 21.25 0.918479 21.25 1.25V2.5H8.75V1.25C8.75 0.918479 8.6183 0.600537 8.38388 0.366117C8.14946 0.131696 7.83152 0 7.5 0C7.16848 0 6.85054 0.131696 6.61612 0.366117C6.3817 0.600537 6.25 0.918479 6.25 1.25V2.5H5C3.67392 2.5 2.40215 3.02678 1.46447 3.96447C0.526784 4.90215 0 6.17392 0 7.5L0 25C0 26.3261 0.526784 27.5979 1.46447 28.5355C2.40215 29.4732 3.67392 30 5 30H25C26.3261 30 27.5979 29.4732 28.5355 28.5355C29.4732 27.5979 30 26.3261 30 25V7.5C30 6.17392 29.4732 4.90215 28.5355 3.96447C27.5979 3.02678 26.3261 2.5 25 2.5ZM27.5 25C27.5 25.663 27.2366 26.2989 26.7678 26.7678C26.2989 27.2366 25.663 27.5 25 27.5H5C4.33696 27.5 3.70107 27.2366 3.23223 26.7678C2.76339 26.2989 2.5 25.663 2.5 25V7.5C2.5 6.83696 2.76339 6.20107 3.23223 5.73223C3.70107 5.26339 4.33696 5 5 5H6.25V6.25C6.25 6.58152 6.3817 6.89946 6.61612 7.13388C6.85054 7.3683 7.16848 7.5 7.5 7.5C7.83152 7.5 8.14946 7.3683 8.38388 7.13388C8.6183 6.89946 8.75 6.58152 8.75 6.25V5H21.25V6.25C21.25 6.58152 21.3817 6.89946 21.6161 7.13388C21.8505 7.3683 22.1685 7.5 22.5 7.5C22.8315 7.5 23.1495 7.3683 23.3839 7.13388C23.6183 6.89946 23.75 6.58152 23.75 6.25V5H25C25.663 5 26.2989 5.26339 26.7678 5.73223C27.2366 6.20107 27.5 6.83696 27.5 7.5V25Z" fill="white"/>
<path d="M23.75 8.75H6.25C5.91848 8.75 5.60054 8.8817 5.36612 9.11612C5.1317 9.35054 5 9.66848 5 10C5 10.3315 5.1317 10.6495 5.36612 10.8839C5.60054 11.1183 5.91848 11.25 6.25 11.25H23.75C24.0815 11.25 24.3995 11.1183 24.6339 10.8839C24.8683 10.6495 25 10.3315 25 10C25 9.66848 24.8683 9.35054 24.6339 9.11612C24.3995 8.8817 24.0815 8.75 23.75 8.75Z" fill="white"/>
<path d="M8.75 15H6.25C5.91848 15 5.60054 15.1317 5.36612 15.3661C5.1317 15.6005 5 15.9185 5 16.25C5 16.5815 5.1317 16.8995 5.36612 17.1339C5.60054 17.3683 5.91848 17.5 6.25 17.5H8.75C9.08152 17.5 9.39946 17.3683 9.63388 17.1339C9.8683 16.8995 10 16.5815 10 16.25C10 15.9185 9.8683 15.6005 9.63388 15.3661C9.39946 15.1317 9.08152 15 8.75 15Z" fill="white"/>
<path d="M8.75 21.25H6.25C5.91848 21.25 5.60054 21.3817 5.36612 21.6161C5.1317 21.8505 5 22.1685 5 22.5C5 22.8315 5.1317 23.1495 5.36612 23.3839C5.60054 23.6183 5.91848 23.75 6.25 23.75H8.75C9.08152 23.75 9.39946 23.6183 9.63388 23.3839C9.8683 23.1495 10 22.8315 10 22.5C10 22.1685 9.8683 21.8505 9.63388 21.6161C9.39946 21.3817 9.08152 21.25 8.75 21.25Z" fill="white"/>
<path d="M16.25 15H13.75C13.4185 15 13.1005 15.1317 12.8661 15.3661C12.6317 15.6005 12.5 15.9185 12.5 16.25C12.5 16.5815 12.6317 16.8995 12.8661 17.1339C13.1005 17.3683 13.4185 17.5 13.75 17.5H16.25C16.5815 17.5 16.8995 17.3683 17.1339 17.1339C17.3683 16.8995 17.5 16.5815 17.5 16.25C17.5 15.9185 17.3683 15.6005 17.1339 15.3661C16.8995 15.1317 16.5815 15 16.25 15Z" fill="white"/>
<path d="M16.25 21.25H13.75C13.4185 21.25 13.1005 21.3817 12.8661 21.6161C12.6317 21.8505 12.5 22.1685 12.5 22.5C12.5 22.8315 12.6317 23.1495 12.8661 23.3839C13.1005 23.6183 13.4185 23.75 13.75 23.75H16.25C16.5815 23.75 16.8995 23.6183 17.1339 23.3839C17.3683 23.1495 17.5 22.8315 17.5 22.5C17.5 22.1685 17.3683 21.8505 17.1339 21.6161C16.8995 21.3817 16.5815 21.25 16.25 21.25Z" fill="white"/>
<path d="M23.75 15H21.25C20.9185 15 20.6005 15.1317 20.3661 15.3661C20.1317 15.6005 20 15.9185 20 16.25C20 16.5815 20.1317 16.8995 20.3661 17.1339C20.6005 17.3683 20.9185 17.5 21.25 17.5H23.75C24.0815 17.5 24.3995 17.3683 24.6339 17.1339C24.8683 16.8995 25 16.5815 25 16.25C25 15.9185 24.8683 15.6005 24.6339 15.3661C24.3995 15.1317 24.0815 15 23.75 15Z" fill="white"/>
<path d="M23.75 21.25H21.25C20.9185 21.25 20.6005 21.3817 20.3661 21.6161C20.1317 21.8505 20 22.1685 20 22.5C20 22.8315 20.1317 23.1495 20.3661 23.3839C20.6005 23.6183 20.9185 23.75 21.25 23.75H23.75C24.0815 23.75 24.3995 23.6183 24.6339 23.3839C24.8683 23.1495 25 22.8315 25 22.5C25 22.1685 24.8683 21.8505 24.6339 21.6161C24.3995 21.3817 24.0815 21.25 23.75 21.25Z" fill="white"/>
</g>
<defs>
<clipPath id="clip0_88_675">
<rect width="30" height="30" fill="white"/>
</clipPath>
</defs>
</svg>
