<svg width="30" height="30" viewBox="0 0 30 30" fill="none" xmlns="http://www.w3.org/2000/svg">
<path d="M11.6667 0H1.66667C1.22464 0 0.800716 0.175595 0.488155 0.488155C0.175595 0.800716 0 1.22464 0 1.66667V11.6667C0 12.1087 0.175595 12.5326 0.488155 12.8452C0.800716 13.1577 1.22464 13.3333 1.66667 13.3333H11.6667C12.1087 13.3333 12.5326 13.1577 12.8452 12.8452C13.1577 12.5326 13.3333 12.1087 13.3333 11.6667V1.66667C13.3333 1.22464 13.1577 0.800716 12.8452 0.488155C12.5326 0.175595 12.1087 0 11.6667 0ZM28.3333 16.6667H18.3333C17.8913 16.6667 17.4674 16.8423 17.1548 17.1548C16.8423 17.4674 16.6667 17.8913 16.6667 18.3333V28.3333C16.6667 28.7754 16.8423 29.1993 17.1548 29.5118C17.4674 29.8244 17.8913 30 18.3333 30H28.3333C28.7754 30 29.1993 29.8244 29.5118 29.5118C29.8244 29.1993 30 28.7754 30 28.3333V18.3333C30 17.8913 29.8244 17.4674 29.5118 17.1548C29.1993 16.8423 28.7754 16.6667 28.3333 16.6667ZM23.3333 0C19.6567 0 16.6667 2.99 16.6667 6.66667C16.6667 10.3433 19.6567 13.3333 23.3333 13.3333C27.01 13.3333 30 10.3433 30 6.66667C30 2.99 27.01 0 23.3333 0ZM6.66667 16.6667C2.99 16.6667 0 19.6567 0 23.3333C0 27.01 2.99 30 6.66667 30C10.3433 30 13.3333 27.01 13.3333 23.3333C13.3333 19.6567 10.3433 16.6667 6.66667 16.6667Z" fill="white"/>
</svg>
