<svg width="28" height="28" viewBox="0 0 28 28" fill="none" xmlns="http://www.w3.org/2000/svg">
<path d="M5.25 10.5V23.625C5.25 25.0723 6.42775 26.25 7.875 26.25H20.125C21.5723 26.25 22.75 25.0723 22.75 23.625V10.5H5.25ZM10.5 21.875C10.5 22.358 10.108 22.75 9.625 22.75C9.142 22.75 8.75 22.358 8.75 21.875V14C8.75 13.517 9.142 13.125 9.625 13.125C10.108 13.125 10.5 13.517 10.5 14V21.875ZM14.875 21.875C14.875 22.358 14.483 22.75 14 22.75C13.517 22.75 13.125 22.358 13.125 21.875V14C13.125 13.517 13.517 13.125 14 13.125C14.483 13.125 14.875 13.517 14.875 14V21.875ZM19.25 21.875C19.25 22.358 18.858 22.75 18.375 22.75C17.892 22.75 17.5 22.358 17.5 21.875V14C17.5 13.517 17.892 13.125 18.375 13.125C18.858 13.125 19.25 13.517 19.25 14V21.875Z" fill="white"/>
<path d="M23.625 5.25H18.375V4.375C18.375 2.92775 17.1973 1.75 15.75 1.75H12.25C10.8027 1.75 9.625 2.92775 9.625 4.375V5.25H4.375C3.40987 5.25 2.625 6.03487 2.625 7V7.875C2.625 8.358 3.017 8.75 3.5 8.75H24.5C24.983 8.75 25.375 8.358 25.375 7.875V7C25.375 6.03487 24.5901 5.25 23.625 5.25ZM11.375 4.375C11.375 3.89287 11.7679 3.5 12.25 3.5H15.75C16.2321 3.5 16.625 3.89287 16.625 4.375V5.25H11.375V4.375Z" fill="white"/>
</svg>
