<svg width="30" height="30" viewBox="0 0 30 30" fill="none" xmlns="http://www.w3.org/2000/svg">
<path d="M16.2306 6.24072C16.2306 5.55037 16.7902 4.99072 17.4806 4.99072C17.9273 4.99072 18.3193 5.22509 18.5403 5.57756L21.8998 8.93709C22.3881 9.42524 22.3881 10.2167 21.8998 10.7048C21.4117 11.193 20.6202 11.193 20.1321 10.7048L18.7306 9.30332V18.7408C18.7306 19.431 18.1709 19.9908 17.4806 19.9908C16.7902 19.9908 16.2306 19.431 16.2306 18.7408V6.30254C16.2304 6.29114 16.2304 6.27974 16.2306 6.26834V6.24072Z" fill="white"/>
<path d="M13.7698 23.7592C13.7698 24.4496 13.2102 25.0092 12.5198 25.0092C12.073 25.0092 11.681 24.775 11.46 24.4225L8.10049 21.063C7.61234 20.5747 7.61234 19.7833 8.10049 19.2951C8.58865 18.807 9.3801 18.807 9.86826 19.2951L11.2698 20.6967V11.2593C11.2698 10.5689 11.8294 10.0093 12.5198 10.0093C13.2102 10.0093 13.7698 10.5689 13.7698 11.2593V23.6975C13.7699 23.7088 13.7699 23.7202 13.7698 23.7317V23.7592Z" fill="white"/>
</svg>
