<svg width="30" height="30" viewBox="0 0 30 30" fill="none" xmlns="http://www.w3.org/2000/svg">
<rect x="3.06836" y="5.73853" width="3.80682" height="7.5" rx="1.90341" transform="rotate(-45 3.06836 5.73853)" fill="white"/>
<rect y="16.9565" width="3.91304" height="7.82609" rx="1.95652" transform="rotate(-90 0 16.9565)" fill="white"/>
<rect x="5.73828" y="26.9319" width="3.80682" height="7.5" rx="1.90341" transform="rotate(-135 5.73828 26.9319)" fill="white"/>
<rect x="16.9561" y="30" width="3.91304" height="7.17391" rx="1.95652" transform="rotate(180 16.9561 30)" fill="white"/>
<rect x="26.9316" y="24.2615" width="3.80682" height="7.5" rx="1.90341" transform="rotate(135 26.9316 24.2615)" fill="white"/>
<rect x="30" y="13.0435" width="3.91304" height="7.17391" rx="1.95652" transform="rotate(90 30 13.0435)" fill="white"/>
<rect x="24.2617" y="3.06812" width="3.80682" height="7.5" rx="1.90341" transform="rotate(45 24.2617 3.06812)" fill="white"/>
<rect x="13.0439" width="3.91304" height="7.82609" rx="1.95652" fill="white"/>
</svg>
